<?xml version="1.0" encoding="UTF-8" standalone="no"?>
<!-- Created with Inkscape (http://www.inkscape.org/) -->

<svg
   xmlns:dc="http://purl.org/dc/elements/1.1/"
   xmlns:cc="http://creativecommons.org/ns#"
   xmlns:rdf="http://www.w3.org/1999/02/22-rdf-syntax-ns#"
   xmlns:svg="http://www.w3.org/2000/svg"
   xmlns="http://www.w3.org/2000/svg"
   version="1.1"
   width="367.23001"
   height="99.510002"
   id="svg2">
  <defs
     id="defs4">
    <marker
       refX="0"
       refY="0"
       orient="auto"
       id="Arrow1Lend"
       style="overflow:visible">
      <path
         d="M 0,0 5,-5 -12.5,0 5,5 0,0 z"
         transform="matrix(-0.8,0,0,-0.8,-10,0)"
         id="path3812"
         style="fill-rule:evenodd;stroke:#000000;stroke-width:1pt" />
    </marker>
    <marker
       refX="0"
       refY="0"
       orient="auto"
       id="Arrow1Lstart"
       style="overflow:visible">
      <path
         d="M 0,0 5,-5 -12.5,0 5,5 0,0 z"
         transform="matrix(0.8,0,0,0.8,10,0)"
         id="path3809"
         style="fill-rule:evenodd;stroke:#000000;stroke-width:1pt" />
    </marker>
    <clipPath
       id="clipPath3065">
      <rect
         width="58.289749"
         height="10.807457"
         x="157.32605"
         y="188.68182"
         transform="matrix(0.58643578,-0.80999573,0.83022328,0.55743098,0,0)"
         id="rect3067"
         style="fill:#64aa5a;fill-opacity:1;stroke:none" />
    </clipPath>
    <clipPath
       id="clipPath3088">
      <rect
         width="225.59369"
         height="10.91107"
         x="237.01828"
         y="260.3215"
         transform="matrix(0.58323195,-0.81230567,0.82806586,0.56063084,0,0)"
         id="rect3090"
         style="fill:#64aa5a;fill-opacity:1;stroke:none" />
    </clipPath>
  </defs>
  <metadata
     id="metadata7">
    <rdf:RDF>
      <cc:Work
         rdf:about="">
        <dc:format>image/svg+xml</dc:format>
        <dc:type
           rdf:resource="http://purl.org/dc/dcmitype/StillImage" />
        <dc:title></dc:title>
      </cc:Work>
    </rdf:RDF>
  </metadata>
  <g
     transform="translate(-138.69654,-190.62765)"
     id="layer1">
    <text
       x="142.8645"
       y="250.25621"
       transform="scale(0.94677278,1.0562196)"
       id="text2985"
       xml:space="preserve"
       style="font-size:85.64572906px;font-style:normal;font-weight:normal;line-height:125%;letter-spacing:0px;word-spacing:0px;fill:#000000;fill-opacity:1;stroke:none;font-family:Sans"><tspan
         x="142.8645"
         y="250.25621"
         id="tspan2987"
         style="font-style:normal;font-variant:normal;font-weight:bold;font-stretch:normal;font-family:GFS Complutum;-inkscape-font-specification:GFS Complutum Bold"><tspan
           id="tspan3761"
           style="fill:#64aa5a;fill-opacity:1">exit</tspan><tspan
           id="tspan3799"
           style="fill:#000000;fill-opacity:0.58823529">map</tspan></tspan></text>
    <path
       d="m 10.78125,6.78125 0,11.3125 53.84375,0 -7.0625,-11.3125 -46.78125,0 z"
       transform="translate(138.69654,190.62765)"
       id="rect3803"
       style="color:#000000;fill:#64aa5a;fill-opacity:1;fill-rule:nonzero;stroke:none;marker:none;visibility:visible;display:inline;overflow:visible;enable-background:accumulate" />
    <path
       d="m 138.69654,203.05182 12.21415,-12.42293 8e-5,24.87671 z"
       id="rect4868"
       style="fill:#64aa5a;fill-opacity:1;stroke:none" />
    <path
       d="m 91.0625,79.15625 7.25,11.3125 207.78125,0 0,-11.3125 -215.03125,0 z"
       transform="translate(138.69654,190.62765)"
       id="rect3803-2"
       style="fill:#64aa5a;fill-opacity:1;stroke:none" />
    <path
       d="m 454.88542,275.42037 -12.13611,-12.42292 -8e-5,24.8767 z"
       id="rect4868-2"
       style="fill:#64aa5a;fill-opacity:1;stroke:none" />
  </g>
</svg>
